<?xml version="1.0" encoding="utf-8"?>
<!-- Generator: Adobe Illustrator 16.0.0, SVG Export Plug-In . SVG Version: 6.00 Build 0)  -->
<!DOCTYPE svg PUBLIC "-//W3C//DTD SVG 1.1//EN" "http://www.w3.org/Graphics/SVG/1.1/DTD/svg11.dtd">
<svg version="1.1" xmlns="http://www.w3.org/2000/svg" xmlns:xlink="http://www.w3.org/1999/xlink" x="0px" y="0px"
	 width="767.961px" height="340.483px" viewBox="0 0 767.961 340.483" enable-background="new 0 0 767.961 340.483"
	 xml:space="preserve">
<g id="purple">
	<g>
		<path fill="#5453A3" stroke="#10122F" stroke-miterlimit="10" d="M125.023,86.458l1.245-0.074
			c6.299-0.633,10.717,2.271,13.257,8.717l0.073,1.244c0.586,5.713-4.834,22.998-16.26,51.855
			c-14.698,32.08-23.73,53.027-27.1,62.842c-2.442,7.131-4.688,15.674-6.738,25.635c-2.344,4.102-5.738,6.349-10.181,6.738
			c-7.324,0.684-12.037-2.807-14.136-10.473l-0.073-0.514c-1.318-13.77-2.589-35.303-3.809-64.6l-0.073-0.219h-0.22
			c-10.693,23.438-18.726,42.969-24.097,58.594c-2.49,9.18-4.761,13.867-6.812,14.062c-1.465,1.221-3.418,1.953-5.859,2.197
			l-1.025,0.072c-6.104,0.586-10.327-2.344-12.671-8.789l-0.439-2.051l-0.146-1.318c0.586-12.305,0.659-32.47,0.22-60.498
			c1.366-17.382,1.635-36.352,0.806-56.908c1.708-5.957,5.517-9.203,11.426-9.742c6.152-0.633,10.521,1.832,13.11,7.398l0.806,3.076
			c0.83,8.35,0.61,24.242-0.659,47.68v0.221h0.293c14.11-30.469,22.509-47.852,25.195-52.148c2.637-2.344,5.493-3.662,8.569-3.955
			c5.761-0.586,10.155,2.148,13.184,8.203l0.513,2.855c1.269,12.94,2.344,29.493,3.223,49.658v0.221h0.293
			c14.648-31.201,23.535-53.638,26.66-67.311c0.097-3.173,1.611-6.469,4.541-9.887C120.433,87.629,122.728,86.702,125.023,86.458z"
			/>
		<path fill="#5453A3" stroke="#10122F" stroke-miterlimit="10" d="M139.232,139.997c8.983-0.097,14.453,2.344,16.406,7.324
			l0.22,2.564v3.809c-1.271,10.889-4.175,26.123-8.716,45.703c-5.03,32.666-8.521,48.998-10.474,48.998
			c-1.611,2.002-3.882,3.004-6.812,3.004l-6.445,0.146c-5.079,0-8.544-2.637-10.4-7.91l-0.22-1.904v-1.025
			c1.71-8.008,4.834-25.366,9.375-52.076c3.417-13.084,5.761-25.242,7.031-36.475v-3.002c0-4.346,2.417-7.324,7.251-8.936
			L139.232,139.997z M140.844,107.624h1.025c9.033-0.146,14.55,2.418,16.553,7.691l0.22,1.904v2.344
			c0,9.375-1.904,14.844-5.713,16.406c-6.495,1.123-10.816,1.684-12.964,1.684c-4.59,0-7.789-2.637-9.595-7.91l-0.22-1.684v-1.686
			l0.659-6.152v-2.783c0-4.491,2.71-7.689,8.13-9.594L140.844,107.624z"/>
		<path fill="#5453A3" stroke="#10122F" stroke-miterlimit="10" d="M182.467,40.973h1.039c5.928,0.782,8.892,3.908,8.892,9.375
			c0,12.551-3.375,47.486-10.125,104.811c9.606-17.09,18.196-31.25,25.768-42.48c5.104-7.08,10.341-13.258,15.707-18.531
			c3.245-3.809,6.425-5.713,9.541-5.713c4.673,0,7.896,2.979,9.671,8.936v3.004c0,2.832-2.401,7.227-7.205,13.184
			c-11.38,16.016-22.998,33.178-34.853,51.488c-6.059,8.496-9.087,15.188-9.087,20.068v1.1c0,3.857,3.311,10.033,9.931,18.529
			c5.279,10.157,12.613,21.193,22.003,33.105c9.562,9.912,17.61,16.82,24.144,20.729c10.816,7.811,22.067,13.816,33.75,18.018
			c18.476,6.981,36.023,10.473,52.638,10.473c29.423,0,49.522-10.619,60.298-31.859c6.102-9.375,7.033-22.728,7.033-31.615
			l-0.025-1.957c0.498-4.065,0.68-2.215,0.68-5.291l0.5-3.875c0-5.615-0.117-6.48,5.896-8.678h1.168
			c5.02,0,9.193,3.76,12.525,11.279c0.951,3.32,1.43,6.274,1.43,8.861v4.102c0,8.156-2.488,18.115-7.465,29.883
			c-4.371,9.57-10.449,18.848-18.238,27.832c-6.402,6.592-12.42,11.084-18.043,13.477c-12.852,6.445-27.088,9.668-42.708,9.668
			h-5.192c-32.54,0-64.538-10.669-95.995-32.006c-7.487-5.227-15.945-12.551-25.378-21.973
			c-9.13-10.793-15.382-19.507-18.757-26.148c-2.207-3.855-6.405-10.497-12.592-19.922c-4.631,11.865-7.032,19.312-7.204,22.34
			l-2.077,12.084c-2.035,4.541-4.999,6.812-8.893,6.812h-0.454c-4.198,0-7.27-2.711-9.217-8.131l-0.26-1.83v-0.221
			c0-3.076,3.31-27.807,9.931-74.193c7.701-64.893,11.553-103.346,11.553-115.357C174.266,44.099,177.491,40.973,182.467,40.973z"/>
		<path fill="#5453A3" stroke="#10122F" stroke-miterlimit="10" d="M261.693,139.997c8.983-0.097,14.453,2.344,16.406,7.324
			l0.22,2.564v3.809c-1.271,10.889-4.175,26.123-8.716,45.703c-5.029,32.666-8.521,48.998-10.474,48.998
			c-1.611,2.002-3.882,3.004-6.812,3.004l-6.445,0.146c-5.079,0-8.544-2.637-10.4-7.91l-0.22-1.904v-1.025
			c1.71-8.008,4.834-25.366,9.375-52.076c3.417-13.084,5.761-25.242,7.031-36.475v-3.002c0-4.346,2.417-7.324,7.251-8.936
			L261.693,139.997z M263.305,107.624h1.025c9.033-0.146,14.55,2.418,16.553,7.691l0.22,1.904v2.344
			c0,9.375-1.904,14.844-5.713,16.406c-6.494,1.123-10.815,1.684-12.964,1.684c-4.59,0-7.789-2.637-9.595-7.91l-0.22-1.684v-1.686
			l0.659-6.152v-2.783c0-4.491,2.71-7.689,8.13-9.594L263.305,107.624z"/>
		<path fill="#5453A3" stroke="#10122F" stroke-miterlimit="10" d="M316.112,6.917h2.197c8.057,1.27,12.085,5.322,12.085,12.158
			c0,17.432-4.493,48.145-13.477,92.139c-7.52,50.732-11.279,90.967-11.279,120.703c0,5.42-3.321,9.18-9.961,11.279l-3.223,0.293
			c-8.643-1.074-12.964-5.127-12.964-12.158v-1.318c0-33.35,4.492-77.441,13.477-132.275c7.519-35.693,11.279-62.816,11.279-81.373
			C306.591,10.065,310.546,6.917,316.112,6.917z"/>
		<path fill="#5453A3" stroke="#10122F" stroke-miterlimit="10" d="M337.353,139.997c8.983-0.097,14.453,2.344,16.406,7.324
			l0.22,2.564v3.809c-1.271,10.889-4.175,26.123-8.716,45.703c-5.029,32.666-8.521,48.998-10.474,48.998
			c-1.611,2.002-3.882,3.004-6.812,3.004l-6.445,0.146c-5.079,0-8.544-2.637-10.4-7.91l-0.22-1.904v-1.025
			c1.71-8.008,4.834-25.366,9.375-52.076c3.417-13.084,5.761-25.242,7.031-36.475v-3.002c0-4.346,2.417-7.324,7.251-8.936
			L337.353,139.997z M338.964,107.624h1.025c9.033-0.146,14.55,2.418,16.553,7.691l0.22,1.904v2.344
			c0,9.375-1.904,14.844-5.713,16.406c-6.494,1.123-10.815,1.684-12.964,1.684c-4.59,0-7.789-2.637-9.595-7.91l-0.22-1.684v-1.686
			l0.659-6.152v-2.783c0-4.491,2.71-7.689,8.13-9.594L338.964,107.624z"/>
		<path fill="#5453A3" stroke="#10122F" stroke-miterlimit="10" d="M423.078,233.157c-0.723,4.963-0.105,6.914-7.283,8.721h-1.391
			c-5.812,0-9.768-3.736-11.865-11.207c-0.635-2.88-0.953-5.688-0.953-8.422v-3.516l2.344-43.359l0.221-7.91v-0.293h-0.221
			c-10.449,20.312-16.285,32.056-17.504,35.229c-4.248,8.789-7.277,19.922-9.082,33.398c-2.686,5.127-6.422,7.691-11.207,7.691
			h-1.172c-6.543-0.732-9.814-3.833-9.814-9.303l4.907-83.35c1.855-18.797,3.809-32.323,5.86-40.576
			c1.951-3.709,4.809-5.566,8.568-5.566h0.953c5.371,0,9.18,2.857,11.426,8.57c0.34,0.635,0.512,1.514,0.512,2.637v0.219
			l-3.516,24.684l-1.904,19.189v0.219h0.293c9.326-20.947,18.336-37.45,27.027-49.512c2.734-2.49,5.613-3.734,8.643-3.734
			c5.664,0,9.326,3.052,10.986,9.154l0.439,9.082c0,4.348-0.928,21.387-2.783,51.123l-2.344,40.797l-0.156,3.707
			c-0.023,1.578-0.299,3.544-0.297,5.578 M424.218,217.122l-0.156,2.707c-0.023,1.578-0.225,4.572-0.297,6.578"/>
		<path fill="#5453A3" stroke="#10122F" stroke-miterlimit="10" d="M464.501,40.973h1.172c6.689,0.782,10.033,3.908,10.033,9.375
			c0,12.551-3.809,47.486-11.426,104.811c10.84-17.09,20.533-31.25,29.078-42.48c5.76-7.08,11.67-13.258,17.725-18.531
			c3.662-3.809,7.25-5.713,10.766-5.713c5.273,0,8.91,2.979,10.914,8.936v3.004c0,2.832-2.711,7.227-8.131,13.184
			c-12.842,16.016-25.953,33.178-39.33,51.488c-6.838,8.496-10.254,15.188-10.254,20.068v1.1c0,3.857,3.734,10.033,11.205,18.529
			c5.957,10.157,14.234,21.193,24.83,33.105c10.791,9.912,19.873,16.82,27.246,20.729c12.205,7.811,24.902,13.816,38.086,18.018
			c20.848,6.981,40.648,10.473,59.398,10.473c33.203,0,55.885-10.619,68.043-31.859c6.885-9.375,10.326-18.506,10.326-27.393v-4.102
			c-3.076-1.807-4.613-4.248-4.613-7.324v-0.879c0-5.615,3.393-9.521,10.18-11.719h1.318c5.664,0,10.375,3.76,14.137,11.279
			c1.072,3.32,1.611,6.274,1.611,8.861v4.102c0,8.156-2.809,18.115-8.424,29.883c-4.932,9.57-11.791,18.848-20.58,27.832
			c-7.227,6.592-14.016,11.084-20.361,13.477c-14.502,6.445-30.568,9.668-48.193,9.668h-5.859
			c-36.721,0-72.828-10.669-108.326-32.006c-8.447-5.227-17.992-12.551-28.637-21.973c-10.303-10.793-17.359-19.507-21.168-26.148
			c-2.49-3.855-7.227-10.497-14.209-19.922c-5.225,11.865-7.936,19.312-8.129,22.34l-2.344,12.084
			c-2.297,4.541-5.641,6.812-10.035,6.812h-0.512c-4.736,0-8.203-2.711-10.4-8.131l-0.293-1.83v-0.221
			c0-3.076,3.734-27.807,11.205-74.193c8.691-64.893,13.037-103.346,13.037-115.357C455.248,44.099,458.886,40.973,464.501,40.973z"
			/>
		<path fill="#5453A3" stroke="#10122F" stroke-miterlimit="10" d="M580.296,96.93l1.904-0.072
			c10.303-0.439,17.822,6.274,22.559,20.141c0.928,3.908,1.439,7.496,1.539,10.768c0.439,10.547-2.271,19.361-8.131,26.439
			c-2.441,2.297-4.76,3.469-6.957,3.516l-1.686,0.074c-4.688,0.195-8.154-2.734-10.4-8.789l-0.293-2.271v-0.219
			c-0.098-2.002,1.074-4.955,3.516-8.863c1.416-4.102,2.076-7.567,1.979-10.4c-0.1-2.391-1.074-5.273-2.93-8.643
			c-8.936,4.641-16.162,13.576-21.68,26.807c-1.367,3.516-1.979,6.838-1.832,9.961c0.146,4.005,3.49,6.324,10.035,6.959
			c6.689,0.928,11.963,2.393,15.82,4.395c8.789,5.664,13.377,13.599,13.77,23.803c0.439,10.743-5.615,24.023-18.164,39.844
			c-12.012,13.623-24.123,20.679-36.328,21.168c-12.158,0.486-20.68-4.98-25.562-16.406c-1.27-3.516-1.953-6.859-2.051-10.035
			l-0.072-1.83c-0.391-9.863,3.32-18.481,11.133-25.855c4.734-3.562,10.301-5.467,16.699-5.713
			c4.734-0.193,8.154,2.344,10.254,7.617l0.293,2.051l0.072,2.125c0.195,4.541-2.27,7.91-7.396,10.107
			c-4.883,0.195-7.301,0.977-7.252,2.344c-1.123,2.832-1.637,5.738-1.537,8.715c0.146,3.076,1.365,4.566,3.662,4.469h0.439
			c5.467-0.195,12.402-4.762,20.801-13.697c8.789-10.107,13.061-18.114,12.816-24.023c-0.146-4.198-2.076-6.225-5.785-6.078
			c-9.521-1.465-16.455-3.467-20.801-6.006c-8.35-5.176-12.697-12.572-13.037-22.193v-0.512
			c-0.539-12.891,5.395-27.32,17.797-43.287C562.669,102.743,571.605,97.273,580.296,96.93z"/>
	</g>
</g>
<g id="blue_1_">
	<g>
		<path fill="#4DB5E7" stroke="#10122F" stroke-miterlimit="10" d="M129.023,90.458l1.245-0.074
			c6.299-0.633,10.717,2.271,13.257,8.717l0.073,1.244c0.586,5.713-4.834,22.998-16.26,51.855
			c-14.698,32.08-23.73,53.027-27.1,62.842c-2.442,7.131-4.688,15.674-6.738,25.635c-2.344,4.102-5.738,6.349-10.181,6.738
			c-7.324,0.684-12.037-2.807-14.136-10.473l-0.073-0.514c-1.318-13.77-2.589-35.303-3.809-64.6l-0.073-0.219h-0.22
			c-10.693,23.438-18.726,42.969-24.097,58.594c-2.49,9.18-4.761,13.867-6.812,14.062c-1.465,1.221-3.418,1.953-5.859,2.197
			l-1.025,0.072c-6.104,0.586-10.327-2.344-12.671-8.789l-0.439-2.051l-0.146-1.318c0.586-12.305,0.659-32.47,0.22-60.498
			c1.366-17.382,1.635-36.352,0.806-56.908c1.708-5.957,5.517-9.203,11.426-9.742c6.152-0.633,10.521,1.832,13.11,7.398l0.806,3.076
			c0.83,8.35,0.61,24.242-0.659,47.68v0.221h0.293c14.11-30.469,22.509-47.852,25.195-52.148c2.637-2.344,5.493-3.662,8.569-3.955
			c5.761-0.586,10.155,2.148,13.184,8.203l0.513,2.855c1.269,12.94,2.344,29.493,3.223,49.658v0.221h0.293
			c14.648-31.201,23.535-53.638,26.66-67.311c0.097-3.173,1.611-6.469,4.541-9.887C124.433,91.629,126.728,90.702,129.023,90.458z"
			/>
		<path fill="#4DB5E7" stroke="#10122F" stroke-miterlimit="10" d="M143.232,143.997c8.983-0.097,14.453,2.344,16.406,7.324
			l0.22,2.564v3.809c-1.271,10.889-4.175,26.123-8.716,45.703c-5.03,32.666-8.521,48.998-10.474,48.998
			c-1.611,2.002-3.882,3.004-6.812,3.004l-6.445,0.146c-5.079,0-8.544-2.637-10.4-7.91l-0.22-1.904v-1.025
			c1.71-8.008,4.834-25.366,9.375-52.076c3.417-13.084,5.761-25.242,7.031-36.475v-3.002c0-4.346,2.417-7.324,7.251-8.936
			L143.232,143.997z M144.844,111.624h1.025c9.033-0.146,14.55,2.418,16.553,7.691l0.22,1.904v2.344
			c0,9.375-1.904,14.844-5.713,16.406c-6.495,1.123-10.816,1.684-12.964,1.684c-4.59,0-7.789-2.637-9.595-7.91l-0.22-1.684v-1.686
			l0.659-6.152v-2.783c0-4.491,2.71-7.689,8.13-9.594L144.844,111.624z"/>
		<path fill="#4DB5E7" stroke="#10122F" stroke-miterlimit="10" d="M186.467,44.973h1.039c5.928,0.782,8.892,3.908,8.892,9.375
			c0,12.551-3.375,47.486-10.125,104.811c9.606-17.09,18.196-31.25,25.768-42.48c5.104-7.08,10.341-13.258,15.707-18.531
			c3.245-3.809,6.425-5.713,9.541-5.713c4.673,0,7.896,2.979,9.671,8.936v3.004c0,2.832-2.401,7.227-7.205,13.184
			c-11.38,16.016-22.998,33.178-34.853,51.488c-6.059,8.496-9.087,15.188-9.087,20.068v1.1c0,3.857,3.311,10.033,9.931,18.529
			c5.279,10.157,12.613,21.193,22.003,33.105c9.562,9.912,17.61,16.82,24.144,20.729c10.816,7.811,22.067,13.816,33.75,18.018
			c18.476,6.981,36.023,10.473,52.638,10.473c29.423,0,49.522-10.619,60.298-31.859c6.102-9.375,7.033-22.728,7.033-31.615
			l-0.025-1.957c0.498-4.065,0.68-2.215,0.68-5.291l0.5-3.875c0-5.615-0.117-6.48,5.896-8.678h1.168
			c5.02,0,9.193,3.76,12.525,11.279c0.951,3.32,1.43,6.274,1.43,8.861v4.102c0,8.156-2.488,18.115-7.465,29.883
			c-4.371,9.57-10.449,18.848-18.238,27.832c-6.402,6.592-12.42,11.084-18.043,13.477c-12.852,6.445-27.088,9.668-42.708,9.668
			h-5.192c-32.54,0-64.538-10.669-95.995-32.006c-7.487-5.227-15.945-12.551-25.378-21.973
			c-9.13-10.793-15.382-19.507-18.757-26.148c-2.207-3.855-6.405-10.497-12.592-19.922c-4.631,11.865-7.032,19.312-7.204,22.34
			l-2.077,12.084c-2.035,4.541-4.999,6.812-8.893,6.812h-0.454c-4.198,0-7.27-2.711-9.217-8.131l-0.26-1.83v-0.221
			c0-3.076,3.31-27.807,9.931-74.193c7.701-64.893,11.553-103.346,11.553-115.357C178.266,48.099,181.491,44.973,186.467,44.973z"/>
		<path fill="#4DB5E7" stroke="#10122F" stroke-miterlimit="10" d="M265.693,143.997c8.983-0.097,14.453,2.344,16.406,7.324
			l0.22,2.564v3.809c-1.271,10.889-4.175,26.123-8.716,45.703c-5.029,32.666-8.521,48.998-10.474,48.998
			c-1.611,2.002-3.882,3.004-6.812,3.004l-6.445,0.146c-5.079,0-8.544-2.637-10.4-7.91l-0.22-1.904v-1.025
			c1.71-8.008,4.834-25.366,9.375-52.076c3.417-13.084,5.761-25.242,7.031-36.475v-3.002c0-4.346,2.417-7.324,7.251-8.936
			L265.693,143.997z M267.305,111.624h1.025c9.033-0.146,14.55,2.418,16.553,7.691l0.22,1.904v2.344
			c0,9.375-1.904,14.844-5.713,16.406c-6.494,1.123-10.815,1.684-12.964,1.684c-4.59,0-7.789-2.637-9.595-7.91l-0.22-1.684v-1.686
			l0.659-6.152v-2.783c0-4.491,2.71-7.689,8.13-9.594L267.305,111.624z"/>
		<path fill="#4DB5E7" stroke="#10122F" stroke-miterlimit="10" d="M320.112,10.917h2.197c8.057,1.27,12.085,5.322,12.085,12.158
			c0,17.432-4.493,48.145-13.477,92.139c-7.52,50.732-11.279,90.967-11.279,120.703c0,5.42-3.321,9.18-9.961,11.279l-3.223,0.293
			c-8.643-1.074-12.964-5.127-12.964-12.158v-1.318c0-33.35,4.492-77.441,13.477-132.275c7.519-35.693,11.279-62.816,11.279-81.373
			C310.591,14.065,314.546,10.917,320.112,10.917z"/>
		<path fill="#4DB5E7" stroke="#10122F" stroke-miterlimit="10" d="M341.353,143.997c8.983-0.097,14.453,2.344,16.406,7.324
			l0.22,2.564v3.809c-1.271,10.889-4.175,26.123-8.716,45.703c-5.029,32.666-8.521,48.998-10.474,48.998
			c-1.611,2.002-3.882,3.004-6.812,3.004l-6.445,0.146c-5.079,0-8.544-2.637-10.4-7.91l-0.22-1.904v-1.025
			c1.71-8.008,4.834-25.366,9.375-52.076c3.417-13.084,5.761-25.242,7.031-36.475v-3.002c0-4.346,2.417-7.324,7.251-8.936
			L341.353,143.997z M342.964,111.624h1.025c9.033-0.146,14.55,2.418,16.553,7.691l0.22,1.904v2.344
			c0,9.375-1.904,14.844-5.713,16.406c-6.494,1.123-10.815,1.684-12.964,1.684c-4.59,0-7.789-2.637-9.595-7.91l-0.22-1.684v-1.686
			l0.659-6.152v-2.783c0-4.491,2.71-7.689,8.13-9.594L342.964,111.624z"/>
		<path fill="#4DB5E7" stroke="#10122F" stroke-miterlimit="10" d="M427.078,237.157c-0.723,4.963-0.105,6.914-7.283,8.721h-1.391
			c-5.812,0-9.768-3.736-11.865-11.207c-0.635-2.88-0.953-5.688-0.953-8.422v-3.516l2.344-43.359l0.221-7.91v-0.293h-0.221
			c-10.449,20.312-16.285,32.056-17.504,35.229c-4.248,8.789-7.277,19.922-9.082,33.398c-2.686,5.127-6.422,7.691-11.207,7.691
			h-1.172c-6.543-0.732-9.814-3.833-9.814-9.303l4.907-83.35c1.855-18.797,3.809-32.323,5.86-40.576
			c1.951-3.709,4.809-5.566,8.568-5.566h0.953c5.371,0,9.18,2.857,11.426,8.57c0.34,0.635,0.512,1.514,0.512,2.637v0.219
			l-3.516,24.684l-1.904,19.189v0.219h0.293c9.326-20.947,18.336-37.45,27.027-49.512c2.734-2.49,5.613-3.734,8.643-3.734
			c5.664,0,9.326,3.052,10.986,9.154l0.439,9.082c0,4.348-0.928,21.387-2.783,51.123l-2.344,40.797l-0.156,3.707
			c-0.023,1.578-0.299,3.544-0.297,5.578 M428.218,221.122l-0.156,2.707c-0.023,1.578-0.225,4.572-0.297,6.578"/>
		<path fill="#4DB5E7" stroke="#10122F" stroke-miterlimit="10" d="M468.501,44.973h1.172c6.689,0.782,10.033,3.908,10.033,9.375
			c0,12.551-3.809,47.486-11.426,104.811c10.84-17.09,20.533-31.25,29.078-42.48c5.76-7.08,11.67-13.258,17.725-18.531
			c3.662-3.809,7.25-5.713,10.766-5.713c5.273,0,8.91,2.979,10.914,8.936v3.004c0,2.832-2.711,7.227-8.131,13.184
			c-12.842,16.016-25.953,33.178-39.33,51.488c-6.838,8.496-10.254,15.188-10.254,20.068v1.1c0,3.857,3.734,10.033,11.205,18.529
			c5.957,10.157,14.234,21.193,24.83,33.105c10.791,9.912,19.873,16.82,27.246,20.729c12.205,7.811,24.902,13.816,38.086,18.018
			c20.848,6.981,40.648,10.473,59.398,10.473c33.203,0,55.885-10.619,68.043-31.859c6.885-9.375,10.326-18.506,10.326-27.393v-4.102
			c-3.076-1.807-4.613-4.248-4.613-7.324v-0.879c0-5.615,3.393-9.521,10.18-11.719h1.318c5.664,0,10.375,3.76,14.137,11.279
			c1.072,3.32,1.611,6.274,1.611,8.861v4.102c0,8.156-2.809,18.115-8.424,29.883c-4.932,9.57-11.791,18.848-20.58,27.832
			c-7.227,6.592-14.016,11.084-20.361,13.477c-14.502,6.445-30.568,9.668-48.193,9.668h-5.859
			c-36.721,0-72.828-10.669-108.326-32.006c-8.447-5.227-17.992-12.551-28.637-21.973c-10.303-10.793-17.359-19.507-21.168-26.148
			c-2.49-3.855-7.227-10.497-14.209-19.922c-5.225,11.865-7.936,19.312-8.129,22.34l-2.344,12.084
			c-2.297,4.541-5.641,6.812-10.035,6.812h-0.512c-4.736,0-8.203-2.711-10.4-8.131l-0.293-1.83v-0.221
			c0-3.076,3.734-27.807,11.205-74.193c8.691-64.893,13.037-103.346,13.037-115.357C459.248,48.099,462.886,44.973,468.501,44.973z"
			/>
		<path fill="#4DB5E7" stroke="#10122F" stroke-miterlimit="10" d="M584.296,100.93l1.904-0.072
			c10.303-0.439,17.822,6.274,22.559,20.141c0.928,3.908,1.439,7.496,1.539,10.768c0.439,10.547-2.271,19.361-8.131,26.439
			c-2.441,2.297-4.76,3.469-6.957,3.516l-1.686,0.074c-4.688,0.195-8.154-2.734-10.4-8.789l-0.293-2.271v-0.219
			c-0.098-2.002,1.074-4.955,3.516-8.863c1.416-4.102,2.076-7.567,1.979-10.4c-0.1-2.391-1.074-5.273-2.93-8.643
			c-8.936,4.641-16.162,13.576-21.68,26.807c-1.367,3.516-1.979,6.838-1.832,9.961c0.146,4.005,3.49,6.324,10.035,6.959
			c6.689,0.928,11.963,2.393,15.82,4.395c8.789,5.664,13.377,13.599,13.77,23.803c0.439,10.743-5.615,24.023-18.164,39.844
			c-12.012,13.623-24.123,20.679-36.328,21.168c-12.158,0.486-20.68-4.98-25.562-16.406c-1.27-3.516-1.953-6.859-2.051-10.035
			l-0.072-1.83c-0.391-9.863,3.32-18.481,11.133-25.855c4.734-3.562,10.301-5.467,16.699-5.713
			c4.734-0.193,8.154,2.344,10.254,7.617l0.293,2.051l0.072,2.125c0.195,4.541-2.27,7.91-7.396,10.107
			c-4.883,0.195-7.301,0.977-7.252,2.344c-1.123,2.832-1.637,5.738-1.537,8.715c0.146,3.076,1.365,4.566,3.662,4.469h0.439
			c5.467-0.195,12.402-4.762,20.801-13.697c8.789-10.107,13.061-18.114,12.816-24.023c-0.146-4.198-2.076-6.225-5.785-6.078
			c-9.521-1.465-16.455-3.467-20.801-6.006c-8.35-5.176-12.697-12.572-13.037-22.193v-0.512
			c-0.539-12.891,5.395-27.32,17.797-43.287C566.669,106.743,575.605,101.273,584.296,100.93z"/>
	</g>
</g>
<g id="green">
	<g>
		<path fill="#78C143" stroke="#10122F" stroke-miterlimit="10" d="M133.023,94.458l1.245-0.074
			c6.299-0.633,10.717,2.271,13.257,8.717l0.073,1.244c0.586,5.713-4.834,22.998-16.26,51.855
			c-14.698,32.08-23.73,53.027-27.1,62.842c-2.442,7.131-4.688,15.674-6.738,25.635c-2.344,4.102-5.738,6.349-10.181,6.738
			c-7.324,0.684-12.037-2.807-14.136-10.473l-0.073-0.514c-1.318-13.77-2.589-35.303-3.809-64.6l-0.073-0.219h-0.22
			c-10.693,23.438-18.726,42.969-24.097,58.594c-2.49,9.18-4.761,13.867-6.812,14.062c-1.465,1.221-3.418,1.953-5.859,2.197
			l-1.025,0.072c-6.104,0.586-10.327-2.344-12.671-8.789l-0.439-2.051l-0.146-1.318c0.586-12.305,0.659-32.47,0.22-60.498
			c1.366-17.382,1.635-36.352,0.806-56.908c1.708-5.957,5.517-9.203,11.426-9.742c6.152-0.633,10.521,1.832,13.11,7.398l0.806,3.076
			c0.83,8.35,0.61,24.242-0.659,47.68v0.221h0.293c14.11-30.469,22.509-47.852,25.195-52.148c2.637-2.344,5.493-3.662,8.569-3.955
			c5.761-0.586,10.155,2.148,13.184,8.203l0.513,2.855c1.269,12.94,2.344,29.493,3.223,49.658v0.221h0.293
			c14.648-31.201,23.535-53.638,26.66-67.311c0.097-3.173,1.611-6.469,4.541-9.887C128.433,95.629,130.728,94.702,133.023,94.458z"
			/>
		<path fill="#78C143" stroke="#10122F" stroke-miterlimit="10" d="M147.232,147.997c8.983-0.097,14.453,2.344,16.406,7.324
			l0.22,2.564v3.809c-1.271,10.889-4.175,26.123-8.716,45.703c-5.03,32.666-8.521,48.998-10.474,48.998
			c-1.611,2.002-3.882,3.004-6.812,3.004l-6.445,0.146c-5.079,0-8.544-2.637-10.4-7.91l-0.22-1.904v-1.025
			c1.71-8.008,4.834-25.366,9.375-52.076c3.417-13.084,5.761-25.242,7.031-36.475v-3.002c0-4.346,2.417-7.324,7.251-8.936
			L147.232,147.997z M148.844,115.624h1.025c9.033-0.146,14.55,2.418,16.553,7.691l0.22,1.904v2.344
			c0,9.375-1.904,14.844-5.713,16.406c-6.495,1.123-10.816,1.684-12.964,1.684c-4.59,0-7.789-2.637-9.595-7.91l-0.22-1.684v-1.686
			l0.659-6.152v-2.783c0-4.491,2.71-7.689,8.13-9.594L148.844,115.624z"/>
		<path fill="#78C143" stroke="#10122F" stroke-miterlimit="10" d="M190.467,48.973h1.039c5.928,0.782,8.892,3.908,8.892,9.375
			c0,12.551-3.375,47.486-10.125,104.811c9.606-17.09,18.196-31.25,25.768-42.48c5.104-7.08,10.341-13.258,15.707-18.531
			c3.245-3.809,6.425-5.713,9.541-5.713c4.673,0,7.896,2.979,9.671,8.936v3.004c0,2.832-2.401,7.227-7.205,13.184
			c-11.38,16.016-22.998,33.178-34.853,51.488c-6.059,8.496-9.087,15.188-9.087,20.068v1.1c0,3.857,3.311,10.033,9.931,18.529
			c5.279,10.157,12.613,21.193,22.003,33.105c9.562,9.912,17.61,16.82,24.144,20.729c10.816,7.811,22.067,13.816,33.75,18.018
			c18.476,6.981,36.023,10.473,52.638,10.473c29.423,0,49.522-10.619,60.298-31.859c6.102-9.375,7.033-22.728,7.033-31.615
			l-0.025-1.957c0.498-4.065,0.68-2.215,0.68-5.291l0.5-3.875c0-5.615-0.117-6.48,5.896-8.678h1.168
			c5.02,0,9.193,3.76,12.525,11.279c0.951,3.32,1.43,6.274,1.43,8.861v4.102c0,8.156-2.488,18.115-7.465,29.883
			c-4.371,9.57-10.449,18.848-18.238,27.832c-6.402,6.592-12.42,11.084-18.043,13.477c-12.852,6.445-27.088,9.668-42.708,9.668
			h-5.192c-32.54,0-64.538-10.669-95.995-32.006c-7.487-5.227-15.945-12.551-25.378-21.973
			c-9.13-10.793-15.382-19.507-18.757-26.148c-2.207-3.855-6.405-10.497-12.592-19.922c-4.631,11.865-7.032,19.312-7.204,22.34
			l-2.077,12.084c-2.035,4.541-4.999,6.812-8.893,6.812h-0.454c-4.198,0-7.27-2.711-9.217-8.131l-0.26-1.83v-0.221
			c0-3.076,3.31-27.807,9.931-74.193c7.701-64.893,11.553-103.346,11.553-115.357C182.266,52.099,185.491,48.973,190.467,48.973z"/>
		<path fill="#78C143" stroke="#10122F" stroke-miterlimit="10" d="M269.693,147.997c8.983-0.097,14.453,2.344,16.406,7.324
			l0.22,2.564v3.809c-1.271,10.889-4.175,26.123-8.716,45.703c-5.029,32.666-8.521,48.998-10.474,48.998
			c-1.611,2.002-3.882,3.004-6.812,3.004l-6.445,0.146c-5.079,0-8.544-2.637-10.4-7.91l-0.22-1.904v-1.025
			c1.71-8.008,4.834-25.366,9.375-52.076c3.417-13.084,5.761-25.242,7.031-36.475v-3.002c0-4.346,2.417-7.324,7.251-8.936
			L269.693,147.997z M271.305,115.624h1.025c9.033-0.146,14.55,2.418,16.553,7.691l0.22,1.904v2.344
			c0,9.375-1.904,14.844-5.713,16.406c-6.494,1.123-10.815,1.684-12.964,1.684c-4.59,0-7.789-2.637-9.595-7.91l-0.22-1.684v-1.686
			l0.659-6.152v-2.783c0-4.491,2.71-7.689,8.13-9.594L271.305,115.624z"/>
		<path fill="#78C143" stroke="#10122F" stroke-miterlimit="10" d="M324.112,14.917h2.197c8.057,1.271,12.085,5.322,12.085,12.158
			c0,17.432-4.493,48.145-13.477,92.139c-7.52,50.732-11.279,90.967-11.279,120.703c0,5.42-3.321,9.18-9.961,11.279l-3.223,0.293
			c-8.643-1.074-12.964-5.127-12.964-12.158v-1.318c0-33.35,4.492-77.441,13.477-132.275c7.519-35.693,11.279-62.816,11.279-81.373
			C314.591,18.066,318.546,14.917,324.112,14.917z"/>
		<path fill="#78C143" stroke="#10122F" stroke-miterlimit="10" d="M345.353,147.997c8.983-0.097,14.453,2.344,16.406,7.324
			l0.22,2.564v3.809c-1.271,10.889-4.175,26.123-8.716,45.703c-5.029,32.666-8.521,48.998-10.474,48.998
			c-1.611,2.002-3.882,3.004-6.812,3.004l-6.445,0.146c-5.079,0-8.544-2.637-10.4-7.91l-0.22-1.904v-1.025
			c1.71-8.008,4.834-25.366,9.375-52.076c3.417-13.084,5.761-25.242,7.031-36.475v-3.002c0-4.346,2.417-7.324,7.251-8.936
			L345.353,147.997z M346.964,115.624h1.025c9.033-0.146,14.55,2.418,16.553,7.691l0.22,1.904v2.344
			c0,9.375-1.904,14.844-5.713,16.406c-6.494,1.123-10.815,1.684-12.964,1.684c-4.59,0-7.789-2.637-9.595-7.91l-0.22-1.684v-1.686
			l0.659-6.152v-2.783c0-4.491,2.71-7.689,8.13-9.594L346.964,115.624z"/>
		<path fill="#78C143" stroke="#10122F" stroke-miterlimit="10" d="M431.078,241.157c-0.723,4.963-0.105,6.914-7.283,8.721h-1.391
			c-5.812,0-9.768-3.736-11.865-11.207c-0.635-2.88-0.953-5.688-0.953-8.422v-3.516l2.344-43.359l0.221-7.91v-0.293h-0.221
			c-10.449,20.312-16.285,32.056-17.504,35.229c-4.248,8.789-7.277,19.922-9.082,33.398c-2.686,5.127-6.422,7.691-11.207,7.691
			h-1.172c-6.543-0.732-9.814-3.833-9.814-9.303l4.907-83.35c1.855-18.797,3.809-32.323,5.86-40.576
			c1.951-3.709,4.809-5.566,8.568-5.566h0.953c5.371,0,9.18,2.857,11.426,8.57c0.34,0.635,0.512,1.514,0.512,2.637v0.219
			l-3.516,24.684l-1.904,19.189v0.219h0.293c9.326-20.947,18.336-37.45,27.027-49.512c2.734-2.49,5.613-3.734,8.643-3.734
			c5.664,0,9.326,3.052,10.986,9.154l0.439,9.082c0,4.348-0.928,21.387-2.783,51.123l-2.344,40.797l-0.156,3.707
			c-0.023,1.578-0.299,3.544-0.297,5.578 M432.218,225.122l-0.156,2.707c-0.023,1.578-0.225,4.572-0.297,6.578"/>
		<path fill="#78C143" stroke="#10122F" stroke-miterlimit="10" d="M472.501,48.973h1.172c6.689,0.782,10.033,3.908,10.033,9.375
			c0,12.551-3.809,47.486-11.426,104.811c10.84-17.09,20.533-31.25,29.078-42.48c5.76-7.08,11.67-13.258,17.725-18.531
			c3.662-3.809,7.25-5.713,10.766-5.713c5.273,0,8.91,2.979,10.914,8.936v3.004c0,2.832-2.711,7.227-8.131,13.184
			c-12.842,16.016-25.953,33.178-39.33,51.488c-6.838,8.496-10.254,15.188-10.254,20.068v1.1c0,3.857,3.734,10.033,11.205,18.529
			c5.957,10.157,14.234,21.193,24.83,33.105c10.791,9.912,19.873,16.82,27.246,20.729c12.205,7.811,24.902,13.816,38.086,18.018
			c20.848,6.981,40.648,10.473,59.398,10.473c33.203,0,55.885-10.619,68.043-31.859c6.885-9.375,10.326-18.506,10.326-27.393v-4.102
			c-3.076-1.807-4.613-4.248-4.613-7.324v-0.879c0-5.615,3.393-9.521,10.18-11.719h1.318c5.664,0,10.375,3.76,14.137,11.279
			c1.072,3.32,1.611,6.274,1.611,8.861v4.102c0,8.156-2.809,18.115-8.424,29.883c-4.932,9.57-11.791,18.848-20.58,27.832
			c-7.227,6.592-14.016,11.084-20.361,13.477c-14.502,6.445-30.568,9.668-48.193,9.668h-5.859
			c-36.721,0-72.828-10.669-108.326-32.006c-8.447-5.227-17.992-12.551-28.637-21.973c-10.303-10.793-17.359-19.507-21.168-26.148
			c-2.49-3.855-7.227-10.497-14.209-19.922c-5.225,11.865-7.936,19.312-8.129,22.34l-2.344,12.084
			c-2.297,4.541-5.641,6.812-10.035,6.812h-0.512c-4.736,0-8.203-2.711-10.4-8.131l-0.293-1.83v-0.221
			c0-3.076,3.734-27.807,11.205-74.193c8.691-64.893,13.037-103.346,13.037-115.357C463.248,52.099,466.886,48.973,472.501,48.973z"
			/>
		<path fill="#78C143" stroke="#10122F" stroke-miterlimit="10" d="M588.296,104.93l1.904-0.072
			c10.303-0.439,17.822,6.274,22.559,20.141c0.928,3.908,1.439,7.496,1.539,10.768c0.439,10.547-2.271,19.361-8.131,26.439
			c-2.441,2.297-4.76,3.469-6.957,3.516l-1.686,0.074c-4.688,0.195-8.154-2.734-10.4-8.789l-0.293-2.271v-0.219
			c-0.098-2.002,1.074-4.955,3.516-8.863c1.416-4.102,2.076-7.567,1.979-10.4c-0.1-2.391-1.074-5.273-2.93-8.643
			c-8.936,4.641-16.162,13.576-21.68,26.807c-1.367,3.516-1.979,6.838-1.832,9.961c0.146,4.005,3.49,6.324,10.035,6.959
			c6.689,0.928,11.963,2.393,15.82,4.395c8.789,5.664,13.377,13.599,13.77,23.803c0.439,10.743-5.615,24.023-18.164,39.844
			c-12.012,13.623-24.123,20.679-36.328,21.168c-12.158,0.486-20.68-4.98-25.562-16.406c-1.27-3.516-1.953-6.859-2.051-10.035
			l-0.072-1.83c-0.391-9.863,3.32-18.481,11.133-25.855c4.734-3.562,10.301-5.467,16.699-5.713
			c4.734-0.193,8.154,2.344,10.254,7.617l0.293,2.051l0.072,2.125c0.195,4.541-2.27,7.91-7.396,10.107
			c-4.883,0.195-7.301,0.977-7.252,2.344c-1.123,2.832-1.637,5.738-1.537,8.715c0.146,3.076,1.365,4.566,3.662,4.469h0.439
			c5.467-0.195,12.402-4.762,20.801-13.697c8.789-10.107,13.061-18.114,12.816-24.023c-0.146-4.198-2.076-6.225-5.785-6.078
			c-9.521-1.465-16.455-3.467-20.801-6.006c-8.35-5.176-12.697-12.572-13.037-22.193v-0.512
			c-0.539-12.891,5.395-27.32,17.797-43.287C570.669,110.743,579.605,105.273,588.296,104.93z"/>
	</g>
</g>
<g id="yellow">
	<g>
		<path fill="#F4EA12" stroke="#10122F" stroke-miterlimit="10" d="M137.023,98.458l1.245-0.074
			c6.299-0.633,10.717,2.271,13.257,8.717l0.073,1.244c0.586,5.713-4.834,22.998-16.26,51.855
			c-14.698,32.08-23.73,53.027-27.1,62.842c-2.442,7.131-4.688,15.674-6.738,25.635c-2.344,4.102-5.738,6.349-10.181,6.738
			c-7.324,0.684-12.037-2.807-14.136-10.473l-0.073-0.514c-1.318-13.77-2.589-35.303-3.809-64.6l-0.073-0.219h-0.22
			c-10.693,23.438-18.726,42.969-24.097,58.594c-2.49,9.18-4.761,13.867-6.812,14.062c-1.465,1.221-3.418,1.953-5.859,2.197
			l-1.025,0.072c-6.104,0.586-10.327-2.344-12.671-8.789l-0.439-2.051l-0.146-1.318c0.586-12.305,0.659-32.47,0.22-60.498
			c1.366-17.382,1.635-36.352,0.806-56.908c1.708-5.957,5.517-9.203,11.426-9.742c6.152-0.633,10.521,1.832,13.11,7.398l0.806,3.076
			c0.83,8.35,0.61,24.242-0.659,47.68v0.221h0.293c14.11-30.469,22.509-47.852,25.195-52.148c2.637-2.344,5.493-3.662,8.569-3.955
			c5.761-0.586,10.155,2.148,13.184,8.203l0.513,2.855c1.269,12.94,2.344,29.493,3.223,49.658v0.221h0.293
			c14.648-31.201,23.535-53.638,26.66-67.311c0.097-3.173,1.611-6.469,4.541-9.887C132.433,99.629,134.728,98.702,137.023,98.458z"
			/>
		<path fill="#F4EA12" stroke="#10122F" stroke-miterlimit="10" d="M151.232,151.997c8.983-0.097,14.453,2.344,16.406,7.324
			l0.22,2.564v3.809c-1.271,10.889-4.175,26.123-8.716,45.703c-5.03,32.666-8.521,48.998-10.474,48.998
			c-1.611,2.002-3.882,3.004-6.812,3.004l-6.445,0.146c-5.079,0-8.544-2.637-10.4-7.91l-0.22-1.904v-1.025
			c1.71-8.008,4.834-25.366,9.375-52.076c3.417-13.084,5.761-25.242,7.031-36.475v-3.002c0-4.346,2.417-7.324,7.251-8.936
			L151.232,151.997z M152.844,119.624h1.025c9.033-0.146,14.55,2.418,16.553,7.691l0.22,1.904v2.344
			c0,9.375-1.904,14.844-5.713,16.406c-6.495,1.123-10.816,1.684-12.964,1.684c-4.59,0-7.789-2.637-9.595-7.91l-0.22-1.684v-1.686
			l0.659-6.152v-2.783c0-4.491,2.71-7.689,8.13-9.594L152.844,119.624z"/>
		<path fill="#F4EA12" stroke="#10122F" stroke-miterlimit="10" d="M194.467,52.974h1.039c5.928,0.781,8.892,3.907,8.892,9.375
			c0,12.55-3.375,47.485-10.125,104.81c9.606-17.09,18.196-31.25,25.768-42.48c5.104-7.08,10.341-13.258,15.707-18.531
			c3.245-3.809,6.425-5.713,9.541-5.713c4.673,0,7.896,2.979,9.671,8.936v3.004c0,2.832-2.401,7.227-7.205,13.184
			c-11.38,16.016-22.998,33.178-34.853,51.488c-6.059,8.496-9.087,15.188-9.087,20.068v1.1c0,3.857,3.311,10.033,9.931,18.529
			c5.279,10.157,12.613,21.193,22.003,33.105c9.562,9.912,17.61,16.82,24.144,20.729c10.816,7.811,22.067,13.816,33.75,18.018
			c18.476,6.981,36.023,10.473,52.638,10.473c29.423,0,49.522-10.619,60.298-31.859c6.102-9.375,7.033-22.728,7.033-31.615
			l-0.025-1.957c0.498-4.065,0.68-2.215,0.68-5.291l0.5-3.875c0-5.615-0.117-6.48,5.896-8.678h1.168
			c5.02,0,9.193,3.76,12.525,11.279c0.951,3.32,1.43,6.274,1.43,8.861v4.102c0,8.156-2.488,18.115-7.465,29.883
			c-4.371,9.57-10.449,18.848-18.238,27.832c-6.402,6.592-12.42,11.084-18.043,13.477c-12.852,6.445-27.088,9.668-42.708,9.668
			h-5.192c-32.54,0-64.538-10.669-95.995-32.006c-7.487-5.227-15.945-12.551-25.378-21.973
			c-9.13-10.793-15.382-19.507-18.757-26.148c-2.207-3.855-6.405-10.497-12.592-19.922c-4.631,11.865-7.032,19.312-7.204,22.34
			l-2.077,12.084c-2.035,4.541-4.999,6.812-8.893,6.812h-0.454c-4.198,0-7.27-2.711-9.217-8.131l-0.26-1.83v-0.221
			c0-3.076,3.31-27.807,9.931-74.193c7.701-64.893,11.553-103.346,11.553-115.356C186.266,56.099,189.491,52.974,194.467,52.974z"/>
		<path fill="#F4EA12" stroke="#10122F" stroke-miterlimit="10" d="M273.693,151.997c8.983-0.097,14.453,2.344,16.406,7.324
			l0.22,2.564v3.809c-1.271,10.889-4.175,26.123-8.716,45.703c-5.029,32.666-8.521,48.998-10.474,48.998
			c-1.611,2.002-3.882,3.004-6.812,3.004l-6.445,0.146c-5.079,0-8.544-2.637-10.4-7.91l-0.22-1.904v-1.025
			c1.71-8.008,4.834-25.366,9.375-52.076c3.417-13.084,5.761-25.242,7.031-36.475v-3.002c0-4.346,2.417-7.324,7.251-8.936
			L273.693,151.997z M275.305,119.624h1.025c9.033-0.146,14.55,2.418,16.553,7.691l0.22,1.904v2.344
			c0,9.375-1.904,14.844-5.713,16.406c-6.494,1.123-10.815,1.684-12.964,1.684c-4.59,0-7.789-2.637-9.595-7.91l-0.22-1.684v-1.686
			l0.659-6.152v-2.783c0-4.491,2.71-7.689,8.13-9.594L275.305,119.624z"/>
		<path fill="#F4EA12" stroke="#10122F" stroke-miterlimit="10" d="M328.112,18.917h2.197c8.057,1.271,12.085,5.322,12.085,12.158
			c0,17.432-4.493,48.145-13.477,92.139c-7.52,50.732-11.279,90.967-11.279,120.703c0,5.42-3.321,9.18-9.961,11.279l-3.223,0.293
			c-8.643-1.074-12.964-5.127-12.964-12.158v-1.318c0-33.35,4.492-77.441,13.477-132.275c7.519-35.693,11.279-62.816,11.279-81.372
			C318.591,22.066,322.546,18.917,328.112,18.917z"/>
		<path fill="#F4EA12" stroke="#10122F" stroke-miterlimit="10" d="M349.353,151.997c8.983-0.097,14.453,2.344,16.406,7.324
			l0.22,2.564v3.809c-1.271,10.889-4.175,26.123-8.716,45.703c-5.029,32.666-8.521,48.998-10.474,48.998
			c-1.611,2.002-3.882,3.004-6.812,3.004l-6.445,0.146c-5.079,0-8.544-2.637-10.4-7.91l-0.22-1.904v-1.025
			c1.71-8.008,4.834-25.366,9.375-52.076c3.417-13.084,5.761-25.242,7.031-36.475v-3.002c0-4.346,2.417-7.324,7.251-8.936
			L349.353,151.997z M350.964,119.624h1.025c9.033-0.146,14.55,2.418,16.553,7.691l0.22,1.904v2.344
			c0,9.375-1.904,14.844-5.713,16.406c-6.494,1.123-10.815,1.684-12.964,1.684c-4.59,0-7.789-2.637-9.595-7.91l-0.22-1.684v-1.686
			l0.659-6.152v-2.783c0-4.491,2.71-7.689,8.13-9.594L350.964,119.624z"/>
		<path fill="#F4EA12" stroke="#10122F" stroke-miterlimit="10" d="M435.078,245.157c-0.723,4.963-0.105,6.914-7.283,8.721h-1.391
			c-5.812,0-9.768-3.736-11.865-11.207c-0.635-2.88-0.953-5.688-0.953-8.422v-3.516l2.344-43.359l0.221-7.91v-0.293h-0.221
			c-10.449,20.312-16.285,32.056-17.504,35.229c-4.248,8.789-7.277,19.922-9.082,33.398c-2.686,5.127-6.422,7.691-11.207,7.691
			h-1.172c-6.543-0.732-9.814-3.833-9.814-9.303l4.907-83.35c1.855-18.797,3.809-32.323,5.86-40.576
			c1.951-3.709,4.809-5.566,8.568-5.566h0.953c5.371,0,9.18,2.857,11.426,8.57c0.34,0.635,0.512,1.514,0.512,2.637v0.219
			l-3.516,24.684l-1.904,19.189v0.219h0.293c9.326-20.947,18.336-37.45,27.027-49.512c2.734-2.49,5.613-3.734,8.643-3.734
			c5.664,0,9.326,3.052,10.986,9.154l0.439,9.082c0,4.348-0.928,21.387-2.783,51.123l-2.344,40.797l-0.156,3.707
			c-0.023,1.578-0.299,3.544-0.297,5.578 M436.218,229.122l-0.156,2.707c-0.023,1.578-0.225,4.572-0.297,6.578"/>
		<path fill="#F4EA12" stroke="#10122F" stroke-miterlimit="10" d="M476.501,52.974h1.172c6.689,0.781,10.033,3.907,10.033,9.375
			c0,12.55-3.809,47.485-11.426,104.81c10.84-17.09,20.533-31.25,29.078-42.48c5.76-7.08,11.67-13.258,17.725-18.531
			c3.662-3.809,7.25-5.713,10.766-5.713c5.273,0,8.91,2.979,10.914,8.936v3.004c0,2.832-2.711,7.227-8.131,13.184
			c-12.842,16.016-25.953,33.178-39.33,51.488c-6.838,8.496-10.254,15.188-10.254,20.068v1.1c0,3.857,3.734,10.033,11.205,18.529
			c5.957,10.157,14.234,21.193,24.83,33.105c10.791,9.912,19.873,16.82,27.246,20.729c12.205,7.811,24.902,13.816,38.086,18.018
			c20.848,6.981,40.648,10.473,59.398,10.473c33.203,0,55.885-10.619,68.043-31.859c6.885-9.375,10.326-18.506,10.326-27.393v-4.102
			c-3.076-1.807-4.613-4.248-4.613-7.324v-0.879c0-5.615,3.393-9.521,10.18-11.719h1.318c5.664,0,10.375,3.76,14.137,11.279
			c1.072,3.32,1.611,6.274,1.611,8.861v4.102c0,8.156-2.809,18.115-8.424,29.883c-4.932,9.57-11.791,18.848-20.58,27.832
			c-7.227,6.592-14.016,11.084-20.361,13.477c-14.502,6.445-30.568,9.668-48.193,9.668h-5.859
			c-36.721,0-72.828-10.669-108.326-32.006c-8.447-5.227-17.992-12.551-28.637-21.973c-10.303-10.793-17.359-19.507-21.168-26.148
			c-2.49-3.855-7.227-10.497-14.209-19.922c-5.225,11.865-7.936,19.312-8.129,22.34l-2.344,12.084
			c-2.297,4.541-5.641,6.812-10.035,6.812h-0.512c-4.736,0-8.203-2.711-10.4-8.131l-0.293-1.83v-0.221
			c0-3.076,3.734-27.807,11.205-74.193c8.691-64.893,13.037-103.346,13.037-115.356C467.248,56.099,470.886,52.974,476.501,52.974z"
			/>
		<path fill="#F4EA12" stroke="#10122F" stroke-miterlimit="10" d="M592.296,108.93l1.904-0.072
			c10.303-0.439,17.822,6.274,22.559,20.141c0.928,3.908,1.439,7.496,1.539,10.768c0.439,10.547-2.271,19.361-8.131,26.439
			c-2.441,2.297-4.76,3.469-6.957,3.516l-1.686,0.074c-4.688,0.195-8.154-2.734-10.4-8.789l-0.293-2.271v-0.219
			c-0.098-2.002,1.074-4.955,3.516-8.863c1.416-4.102,2.076-7.567,1.979-10.4c-0.1-2.391-1.074-5.273-2.93-8.643
			c-8.936,4.641-16.162,13.576-21.68,26.807c-1.367,3.516-1.979,6.838-1.832,9.961c0.146,4.005,3.49,6.324,10.035,6.959
			c6.689,0.928,11.963,2.393,15.82,4.395c8.789,5.664,13.377,13.599,13.77,23.803c0.439,10.743-5.615,24.023-18.164,39.844
			c-12.012,13.623-24.123,20.679-36.328,21.168c-12.158,0.486-20.68-4.98-25.562-16.406c-1.27-3.516-1.953-6.859-2.051-10.035
			l-0.072-1.83c-0.391-9.863,3.32-18.481,11.133-25.855c4.734-3.562,10.301-5.467,16.699-5.713
			c4.734-0.193,8.154,2.344,10.254,7.617l0.293,2.051l0.072,2.125c0.195,4.541-2.27,7.91-7.396,10.107
			c-4.883,0.195-7.301,0.977-7.252,2.344c-1.123,2.832-1.637,5.738-1.537,8.715c0.146,3.076,1.365,4.566,3.662,4.469h0.439
			c5.467-0.195,12.402-4.762,20.801-13.697c8.789-10.107,13.061-18.114,12.816-24.023c-0.146-4.198-2.076-6.225-5.785-6.078
			c-9.521-1.465-16.455-3.467-20.801-6.006c-8.35-5.176-12.697-12.572-13.037-22.193v-0.512
			c-0.539-12.891,5.395-27.32,17.797-43.287C574.669,114.743,583.605,109.273,592.296,108.93z"/>
	</g>
</g>
<g id="orange">
	<g>
		<path fill="#F26722" stroke="#10122F" stroke-miterlimit="10" d="M141.023,102.458l1.245-0.073
			c6.299-0.634,10.717,2.271,13.257,8.716l0.073,1.245c0.586,5.713-4.834,22.998-16.26,51.854
			c-14.698,32.08-23.73,53.027-27.1,62.842c-2.442,7.131-4.688,15.674-6.738,25.635c-2.344,4.102-5.738,6.349-10.181,6.738
			c-7.324,0.684-12.037-2.807-14.136-10.473l-0.073-0.514c-1.318-13.77-2.589-35.303-3.809-64.6l-0.073-0.219h-0.22
			c-10.693,23.438-18.726,42.969-24.097,58.594c-2.49,9.18-4.761,13.867-6.812,14.062c-1.465,1.221-3.418,1.953-5.859,2.197
			l-1.025,0.072c-6.104,0.586-10.327-2.344-12.671-8.789l-0.439-2.051l-0.146-1.318c0.586-12.305,0.659-32.47,0.22-60.498
			c1.366-17.382,1.635-36.352,0.806-56.908c1.708-5.957,5.517-9.203,11.426-9.741c6.152-0.634,10.521,1.831,13.11,7.397l0.806,3.076
			c0.83,8.35,0.61,24.242-0.659,47.68v0.221h0.293c14.11-30.469,22.509-47.852,25.195-52.148c2.637-2.344,5.493-3.662,8.569-3.955
			c5.761-0.586,10.155,2.149,13.184,8.203l0.513,2.856c1.269,12.939,2.344,29.492,3.223,49.657v0.221h0.293
			c14.648-31.201,23.535-53.638,26.66-67.31c0.097-3.174,1.611-6.47,4.541-9.888C136.433,103.629,138.728,102.703,141.023,102.458z"
			/>
		<path fill="#F26722" stroke="#10122F" stroke-miterlimit="10" d="M155.232,155.997c8.983-0.097,14.453,2.344,16.406,7.324
			l0.22,2.564v3.809c-1.271,10.889-4.175,26.123-8.716,45.703c-5.03,32.666-8.521,48.998-10.474,48.998
			c-1.611,2.002-3.882,3.004-6.812,3.004l-6.445,0.146c-5.079,0-8.544-2.637-10.4-7.91l-0.22-1.904v-1.025
			c1.71-8.008,4.834-25.366,9.375-52.076c3.417-13.084,5.761-25.242,7.031-36.475v-3.002c0-4.346,2.417-7.324,7.251-8.936
			L155.232,155.997z M156.844,123.625h1.025c9.033-0.146,14.55,2.417,16.553,7.69l0.22,1.904v2.344
			c0,9.375-1.904,14.844-5.713,16.406c-6.495,1.123-10.816,1.684-12.964,1.684c-4.59,0-7.789-2.637-9.595-7.91l-0.22-1.684v-1.686
			l0.659-6.152v-2.782c0-4.492,2.71-7.69,8.13-9.595L156.844,123.625z"/>
		<path fill="#F26722" stroke="#10122F" stroke-miterlimit="10" d="M198.467,56.974h1.039c5.928,0.781,8.892,3.907,8.892,9.375
			c0,12.55-3.375,47.486-10.125,104.81c9.606-17.09,18.196-31.25,25.768-42.48c5.104-7.079,10.341-13.257,15.707-18.53
			c3.245-3.809,6.425-5.713,9.541-5.713c4.673,0,7.896,2.979,9.671,8.936v3.003c0,2.832-2.401,7.227-7.205,13.184
			c-11.38,16.016-22.998,33.178-34.853,51.488c-6.059,8.496-9.087,15.188-9.087,20.068v1.1c0,3.857,3.311,10.033,9.931,18.529
			c5.279,10.157,12.613,21.193,22.003,33.105c9.562,9.912,17.61,16.82,24.144,20.729c10.816,7.811,22.067,13.816,33.75,18.018
			c18.476,6.981,36.023,10.473,52.638,10.473c29.423,0,49.522-10.619,60.298-31.859c6.102-9.375,7.033-22.728,7.033-31.615
			l-0.025-1.957c0.498-4.065,0.68-2.215,0.68-5.291l0.5-3.875c0-5.615-0.117-6.48,5.896-8.678h1.168
			c5.02,0,9.193,3.76,12.525,11.279c0.951,3.32,1.43,6.274,1.43,8.861v4.102c0,8.156-2.488,18.115-7.465,29.883
			c-4.371,9.57-10.449,18.848-18.238,27.832c-6.402,6.592-12.42,11.084-18.043,13.477c-12.852,6.445-27.088,9.668-42.708,9.668
			h-5.192c-32.54,0-64.538-10.669-95.995-32.006c-7.487-5.227-15.945-12.551-25.378-21.973
			c-9.13-10.793-15.382-19.507-18.757-26.148c-2.207-3.855-6.405-10.497-12.592-19.922c-4.631,11.865-7.032,19.312-7.204,22.34
			l-2.077,12.084c-2.035,4.541-4.999,6.812-8.893,6.812h-0.454c-4.198,0-7.27-2.711-9.217-8.131l-0.26-1.83v-0.221
			c0-3.076,3.31-27.807,9.931-74.193c7.701-64.893,11.553-103.345,11.553-115.356C190.266,60.099,193.491,56.974,198.467,56.974z"/>
		<path fill="#F26722" stroke="#10122F" stroke-miterlimit="10" d="M277.693,155.997c8.983-0.097,14.453,2.344,16.406,7.324
			l0.22,2.564v3.809c-1.271,10.889-4.175,26.123-8.716,45.703c-5.029,32.666-8.521,48.998-10.474,48.998
			c-1.611,2.002-3.882,3.004-6.812,3.004l-6.445,0.146c-5.079,0-8.544-2.637-10.4-7.91l-0.22-1.904v-1.025
			c1.71-8.008,4.834-25.366,9.375-52.076c3.417-13.084,5.761-25.242,7.031-36.475v-3.002c0-4.346,2.417-7.324,7.251-8.936
			L277.693,155.997z M279.305,123.625h1.025c9.033-0.146,14.55,2.417,16.553,7.69l0.22,1.904v2.344
			c0,9.375-1.904,14.844-5.713,16.406c-6.494,1.123-10.815,1.684-12.964,1.684c-4.59,0-7.789-2.637-9.595-7.91l-0.22-1.684v-1.686
			l0.659-6.152v-2.782c0-4.492,2.71-7.69,8.13-9.595L279.305,123.625z"/>
		<path fill="#F26722" stroke="#10122F" stroke-miterlimit="10" d="M332.112,22.917h2.197c8.057,1.271,12.085,5.322,12.085,12.158
			c0,17.432-4.493,48.146-13.477,92.139c-7.52,50.732-11.279,90.967-11.279,120.703c0,5.42-3.321,9.18-9.961,11.279l-3.223,0.293
			c-8.643-1.074-12.964-5.127-12.964-12.158v-1.318c0-33.35,4.492-77.441,13.477-132.275c7.519-35.693,11.279-62.816,11.279-81.372
			C322.591,26.066,326.546,22.917,332.112,22.917z"/>
		<path fill="#F26722" stroke="#10122F" stroke-miterlimit="10" d="M353.353,155.997c8.983-0.097,14.453,2.344,16.406,7.324
			l0.22,2.564v3.809c-1.271,10.889-4.175,26.123-8.716,45.703c-5.029,32.666-8.521,48.998-10.474,48.998
			c-1.611,2.002-3.882,3.004-6.812,3.004l-6.445,0.146c-5.079,0-8.544-2.637-10.4-7.91l-0.22-1.904v-1.025
			c1.71-8.008,4.834-25.366,9.375-52.076c3.417-13.084,5.761-25.242,7.031-36.475v-3.002c0-4.346,2.417-7.324,7.251-8.936
			L353.353,155.997z M354.964,123.625h1.025c9.033-0.146,14.55,2.417,16.553,7.69l0.22,1.904v2.344
			c0,9.375-1.904,14.844-5.713,16.406c-6.494,1.123-10.815,1.684-12.964,1.684c-4.59,0-7.789-2.637-9.595-7.91l-0.22-1.684v-1.686
			l0.659-6.152v-2.782c0-4.492,2.71-7.69,8.13-9.595L354.964,123.625z"/>
		<path fill="#F26722" stroke="#10122F" stroke-miterlimit="10" d="M439.078,249.157c-0.723,4.963-0.105,6.914-7.283,8.721h-1.391
			c-5.812,0-9.768-3.736-11.865-11.207c-0.635-2.88-0.953-5.688-0.953-8.422v-3.516l2.344-43.359l0.221-7.91v-0.293h-0.221
			c-10.449,20.312-16.285,32.056-17.504,35.229c-4.248,8.789-7.277,19.922-9.082,33.398c-2.686,5.127-6.422,7.691-11.207,7.691
			h-1.172c-6.543-0.732-9.814-3.833-9.814-9.303l4.907-83.35c1.855-18.797,3.809-32.323,5.86-40.575
			c1.951-3.71,4.809-5.566,8.568-5.566h0.953c5.371,0,9.18,2.856,11.426,8.569c0.34,0.635,0.512,1.514,0.512,2.637v0.22
			l-3.516,24.683l-1.904,19.189v0.219h0.293c9.326-20.947,18.336-37.45,27.027-49.511c2.734-2.49,5.613-3.735,8.643-3.735
			c5.664,0,9.326,3.052,10.986,9.155l0.439,9.081c0,4.348-0.928,21.387-2.783,51.123l-2.344,40.797l-0.156,3.707
			c-0.023,1.578-0.299,3.544-0.297,5.578 M440.218,233.122l-0.156,2.707c-0.023,1.578-0.225,4.572-0.297,6.578"/>
		<path fill="#F26722" stroke="#10122F" stroke-miterlimit="10" d="M480.501,56.974h1.172c6.689,0.781,10.033,3.907,10.033,9.375
			c0,12.55-3.809,47.486-11.426,104.81c10.84-17.09,20.533-31.25,29.078-42.48c5.76-7.079,11.67-13.257,17.725-18.53
			c3.662-3.809,7.25-5.713,10.766-5.713c5.273,0,8.91,2.979,10.914,8.936v3.003c0,2.832-2.711,7.227-8.131,13.184
			c-12.842,16.016-25.953,33.178-39.33,51.488c-6.838,8.496-10.254,15.188-10.254,20.068v1.1c0,3.857,3.734,10.033,11.205,18.529
			c5.957,10.157,14.234,21.193,24.83,33.105c10.791,9.912,19.873,16.82,27.246,20.729c12.205,7.811,24.902,13.816,38.086,18.018
			c20.848,6.981,40.648,10.473,59.398,10.473c33.203,0,55.885-10.619,68.043-31.859c6.885-9.375,10.326-18.506,10.326-27.393v-4.102
			c-3.076-1.807-4.613-4.248-4.613-7.324v-0.879c0-5.615,3.393-9.521,10.18-11.719h1.318c5.664,0,10.375,3.76,14.137,11.279
			c1.072,3.32,1.611,6.274,1.611,8.861v4.102c0,8.156-2.809,18.115-8.424,29.883c-4.932,9.57-11.791,18.848-20.58,27.832
			c-7.227,6.592-14.016,11.084-20.361,13.477c-14.502,6.445-30.568,9.668-48.193,9.668h-5.859
			c-36.721,0-72.828-10.669-108.326-32.006c-8.447-5.227-17.992-12.551-28.637-21.973c-10.303-10.793-17.359-19.507-21.168-26.148
			c-2.49-3.855-7.227-10.497-14.209-19.922c-5.225,11.865-7.936,19.312-8.129,22.34l-2.344,12.084
			c-2.297,4.541-5.641,6.812-10.035,6.812h-0.512c-4.736,0-8.203-2.711-10.4-8.131l-0.293-1.83v-0.221
			c0-3.076,3.734-27.807,11.205-74.193c8.691-64.893,13.037-103.345,13.037-115.356C471.248,60.099,474.886,56.974,480.501,56.974z"
			/>
		<path fill="#F26722" stroke="#10122F" stroke-miterlimit="10" d="M596.296,112.931l1.904-0.073
			c10.303-0.439,17.822,6.274,22.559,20.142c0.928,3.907,1.439,7.495,1.539,10.767c0.439,10.547-2.271,19.361-8.131,26.439
			c-2.441,2.297-4.76,3.469-6.957,3.516l-1.686,0.074c-4.688,0.195-8.154-2.734-10.4-8.789l-0.293-2.271v-0.219
			c-0.098-2.002,1.074-4.955,3.516-8.863c1.416-4.102,2.076-7.567,1.979-10.4c-0.1-2.391-1.074-5.273-2.93-8.642
			c-8.936,4.64-16.162,13.575-21.68,26.806c-1.367,3.516-1.979,6.838-1.832,9.961c0.146,4.005,3.49,6.324,10.035,6.959
			c6.689,0.928,11.963,2.393,15.82,4.395c8.789,5.664,13.377,13.599,13.77,23.803c0.439,10.743-5.615,24.023-18.164,39.844
			c-12.012,13.623-24.123,20.679-36.328,21.168c-12.158,0.486-20.68-4.98-25.562-16.406c-1.27-3.516-1.953-6.859-2.051-10.035
			l-0.072-1.83c-0.391-9.863,3.32-18.481,11.133-25.855c4.734-3.562,10.301-5.467,16.699-5.713
			c4.734-0.193,8.154,2.344,10.254,7.617l0.293,2.051l0.072,2.125c0.195,4.541-2.27,7.91-7.396,10.107
			c-4.883,0.195-7.301,0.977-7.252,2.344c-1.123,2.832-1.637,5.738-1.537,8.715c0.146,3.076,1.365,4.566,3.662,4.469h0.439
			c5.467-0.195,12.402-4.762,20.801-13.697c8.789-10.107,13.061-18.114,12.816-24.023c-0.146-4.198-2.076-6.225-5.785-6.078
			c-9.521-1.465-16.455-3.467-20.801-6.006c-8.35-5.176-12.697-12.572-13.037-22.193v-0.512
			c-0.539-12.891,5.395-27.32,17.797-43.286C578.669,118.743,587.605,113.273,596.296,112.931z"/>
	</g>
</g>
<g id="red">
	<g>
		<path fill="#ED2024" stroke="#10122F" stroke-miterlimit="10" d="M145.023,105.458l1.245-0.073
			c6.299-0.634,10.717,2.271,13.257,8.716l0.073,1.245c0.586,5.713-4.834,22.998-16.26,51.855
			c-14.698,32.08-23.73,53.026-27.1,62.841c-2.442,7.131-4.688,15.674-6.738,25.635c-2.344,4.102-5.738,6.349-10.181,6.738
			c-7.324,0.684-12.037-2.807-14.136-10.473l-0.073-0.514c-1.318-13.77-2.589-35.303-3.809-64.599l-0.073-0.22h-0.22
			c-10.693,23.438-18.726,42.969-24.097,58.594c-2.49,9.18-4.761,13.867-6.812,14.062c-1.465,1.221-3.418,1.953-5.859,2.197
			l-1.025,0.072c-6.104,0.586-10.327-2.344-12.671-8.789l-0.439-2.051l-0.146-1.318c0.586-12.305,0.659-32.47,0.22-60.497
			c1.366-17.383,1.635-36.353,0.806-56.909c1.708-5.957,5.517-9.203,11.426-9.741c6.152-0.634,10.521,1.831,13.11,7.397l0.806,3.076
			c0.83,8.35,0.61,24.243-0.659,47.681v0.22h0.293c14.11-30.469,22.509-47.852,25.195-52.148c2.637-2.344,5.493-3.662,8.569-3.955
			c5.761-0.586,10.155,2.149,13.184,8.203l0.513,2.856c1.269,12.939,2.344,29.492,3.223,49.658v0.22h0.293
			c14.648-31.201,23.535-53.638,26.66-67.31c0.097-3.174,1.611-6.47,4.541-9.888C140.433,106.629,142.728,105.703,145.023,105.458z"
			/>
		<path fill="#ED2024" stroke="#10122F" stroke-miterlimit="10" d="M159.232,158.998c8.983-0.098,14.453,2.344,16.406,7.324
			l0.22,2.563v3.809c-1.271,10.889-4.175,26.123-8.716,45.703c-5.03,32.666-8.521,48.998-10.474,48.998
			c-1.611,2.002-3.882,3.004-6.812,3.004l-6.445,0.146c-5.079,0-8.544-2.637-10.4-7.91l-0.22-1.904v-1.025
			c1.71-8.008,4.834-25.366,9.375-52.075c3.417-13.085,5.761-25.243,7.031-36.475v-3.003c0-4.346,2.417-7.324,7.251-8.936
			L159.232,158.998z M160.844,126.625h1.025c9.033-0.146,14.55,2.417,16.553,7.69l0.22,1.904v2.344
			c0,9.375-1.904,14.844-5.713,16.406c-6.495,1.124-10.816,1.685-12.964,1.685c-4.59,0-7.789-2.637-9.595-7.91l-0.22-1.685v-1.685
			l0.659-6.152v-2.783c0-4.492,2.71-7.69,8.13-9.595L160.844,126.625z"/>
		<path fill="#ED2024" stroke="#10122F" stroke-miterlimit="10" d="M202.467,59.974h1.039c5.928,0.781,8.892,3.907,8.892,9.375
			c0,12.55-3.375,47.486-10.125,104.81c9.606-17.09,18.196-31.249,25.768-42.48c5.104-7.079,10.341-13.257,15.707-18.53
			c3.245-3.809,6.425-5.713,9.541-5.713c4.673,0,7.896,2.979,9.671,8.936v3.003c0,2.832-2.401,7.227-7.205,13.184
			c-11.38,16.016-22.998,33.179-34.853,51.489c-6.059,8.496-9.087,15.187-9.087,20.068v1.099c0,3.857,3.311,10.033,9.931,18.529
			c5.279,10.157,12.613,21.193,22.003,33.105c9.562,9.912,17.61,16.82,24.144,20.729c10.816,7.811,22.067,13.816,33.75,18.018
			c18.476,6.981,36.023,10.473,52.638,10.473c29.423,0,49.522-10.619,60.298-31.859c6.102-9.375,7.033-22.728,7.033-31.615
			l-0.025-1.957c0.498-4.065,0.68-2.215,0.68-5.291l0.5-3.875c0-5.615-0.117-6.48,5.896-8.678h1.168
			c5.02,0,9.193,3.76,12.525,11.279c0.951,3.32,1.43,6.274,1.43,8.861v4.102c0,8.156-2.488,18.115-7.465,29.883
			c-4.371,9.57-10.449,18.848-18.238,27.832c-6.402,6.592-12.42,11.084-18.043,13.477c-12.852,6.445-27.088,9.668-42.708,9.668
			h-5.192c-32.54,0-64.538-10.669-95.995-32.006c-7.487-5.227-15.945-12.551-25.378-21.973
			c-9.13-10.793-15.382-19.507-18.757-26.148c-2.207-3.855-6.405-10.497-12.592-19.922c-4.631,11.865-7.032,19.312-7.204,22.34
			l-2.077,12.084c-2.035,4.541-4.999,6.812-8.893,6.812h-0.454c-4.198,0-7.27-2.711-9.217-8.131l-0.26-1.83v-0.221
			c0-3.076,3.31-27.807,9.931-74.193c7.701-64.893,11.553-103.345,11.553-115.356C194.266,63.099,197.491,59.974,202.467,59.974z"/>
		<path fill="#ED2024" stroke="#10122F" stroke-miterlimit="10" d="M281.693,158.998c8.983-0.098,14.453,2.344,16.406,7.324
			l0.22,2.563v3.809c-1.271,10.889-4.175,26.123-8.716,45.703c-5.029,32.666-8.521,48.998-10.474,48.998
			c-1.611,2.002-3.882,3.004-6.812,3.004l-6.445,0.146c-5.079,0-8.544-2.637-10.4-7.91l-0.22-1.904v-1.025
			c1.71-8.008,4.834-25.366,9.375-52.075c3.417-13.085,5.761-25.243,7.031-36.475v-3.003c0-4.346,2.417-7.324,7.251-8.936
			L281.693,158.998z M283.305,126.625h1.025c9.033-0.146,14.55,2.417,16.553,7.69l0.22,1.904v2.344
			c0,9.375-1.904,14.844-5.713,16.406c-6.494,1.124-10.815,1.685-12.964,1.685c-4.59,0-7.789-2.637-9.595-7.91l-0.22-1.685v-1.685
			l0.659-6.152v-2.783c0-4.492,2.71-7.69,8.13-9.595L283.305,126.625z"/>
		<path fill="#ED2024" stroke="#10122F" stroke-miterlimit="10" d="M336.112,25.917h2.197c8.057,1.271,12.085,5.322,12.085,12.158
			c0,17.432-4.493,48.146-13.477,92.139c-7.52,50.732-11.279,90.967-11.279,120.703c0,5.42-3.321,9.18-9.961,11.279l-3.223,0.293
			c-8.643-1.074-12.964-5.127-12.964-12.158v-1.318c0-33.35,4.492-77.441,13.477-132.275c7.519-35.693,11.279-62.816,11.279-81.372
			C326.591,29.066,330.546,25.917,336.112,25.917z"/>
		<path fill="#ED2024" stroke="#10122F" stroke-miterlimit="10" d="M357.353,158.998c8.983-0.098,14.453,2.344,16.406,7.324
			l0.22,2.563v3.809c-1.271,10.889-4.175,26.123-8.716,45.703c-5.029,32.666-8.521,48.998-10.474,48.998
			c-1.611,2.002-3.882,3.004-6.812,3.004l-6.445,0.146c-5.079,0-8.544-2.637-10.4-7.91l-0.22-1.904v-1.025
			c1.71-8.008,4.834-25.366,9.375-52.075c3.417-13.085,5.761-25.243,7.031-36.475v-3.003c0-4.346,2.417-7.324,7.251-8.936
			L357.353,158.998z M358.964,126.625h1.025c9.033-0.146,14.55,2.417,16.553,7.69l0.22,1.904v2.344
			c0,9.375-1.904,14.844-5.713,16.406c-6.494,1.124-10.815,1.685-12.964,1.685c-4.59,0-7.789-2.637-9.595-7.91l-0.22-1.685v-1.685
			l0.659-6.152v-2.783c0-4.492,2.71-7.69,8.13-9.595L358.964,126.625z"/>
		<path fill="#ED2024" stroke="#10122F" stroke-miterlimit="10" d="M443.078,252.157c-0.723,4.963-0.105,6.914-7.283,8.721h-1.391
			c-5.812,0-9.768-3.736-11.865-11.207c-0.635-2.88-0.953-5.688-0.953-8.422v-3.516l2.344-43.359l0.221-7.91v-0.293h-0.221
			c-10.449,20.313-16.285,32.056-17.504,35.229c-4.248,8.789-7.277,19.922-9.082,33.398c-2.686,5.127-6.422,7.691-11.207,7.691
			h-1.172c-6.543-0.732-9.814-3.833-9.814-9.303l4.907-83.349c1.855-18.798,3.809-32.324,5.86-40.576
			c1.951-3.71,4.809-5.566,8.568-5.566h0.953c5.371,0,9.18,2.856,11.426,8.569c0.34,0.635,0.512,1.514,0.512,2.637v0.22
			l-3.516,24.683l-1.904,19.189v0.22h0.293c9.326-20.947,18.336-37.451,27.027-49.512c2.734-2.49,5.613-3.735,8.643-3.735
			c5.664,0,9.326,3.052,10.986,9.155l0.439,9.082c0,4.347-0.928,21.387-2.783,51.123l-2.344,40.796l-0.156,3.707
			c-0.023,1.578-0.299,3.544-0.297,5.578 M444.218,236.122l-0.156,2.707c-0.023,1.578-0.225,4.572-0.297,6.578"/>
		<path fill="#ED2024" stroke="#10122F" stroke-miterlimit="10" d="M484.501,59.974h1.172c6.689,0.781,10.033,3.907,10.033,9.375
			c0,12.55-3.809,47.486-11.426,104.81c10.84-17.09,20.533-31.249,29.078-42.48c5.76-7.079,11.67-13.257,17.725-18.53
			c3.662-3.809,7.25-5.713,10.766-5.713c5.273,0,8.91,2.979,10.914,8.936v3.003c0,2.832-2.711,7.227-8.131,13.184
			c-12.842,16.016-25.953,33.179-39.33,51.489c-6.838,8.496-10.254,15.187-10.254,20.068v1.099c0,3.857,3.734,10.033,11.205,18.529
			c5.957,10.157,14.234,21.193,24.83,33.105c10.791,9.912,19.873,16.82,27.246,20.729c12.205,7.811,24.902,13.816,38.086,18.018
			c20.848,6.981,40.648,10.473,59.398,10.473c33.203,0,55.885-10.619,68.043-31.859c6.885-9.375,10.326-18.506,10.326-27.393v-4.102
			c-3.076-1.807-4.613-4.248-4.613-7.324v-0.879c0-5.615,3.393-9.521,10.18-11.719h1.318c5.664,0,10.375,3.76,14.137,11.279
			c1.072,3.32,1.611,6.274,1.611,8.861v4.102c0,8.156-2.809,18.115-8.424,29.883c-4.932,9.57-11.791,18.848-20.58,27.832
			c-7.227,6.592-14.016,11.084-20.361,13.477c-14.502,6.445-30.568,9.668-48.193,9.668h-5.859
			c-36.721,0-72.828-10.669-108.326-32.006c-8.447-5.227-17.992-12.551-28.637-21.973c-10.303-10.793-17.359-19.507-21.168-26.148
			c-2.49-3.855-7.227-10.497-14.209-19.922c-5.225,11.865-7.936,19.312-8.129,22.34l-2.344,12.084
			c-2.297,4.541-5.641,6.812-10.035,6.812h-0.512c-4.736,0-8.203-2.711-10.4-8.131l-0.293-1.83v-0.221
			c0-3.076,3.734-27.807,11.205-74.193c8.691-64.893,13.037-103.345,13.037-115.356C475.248,63.099,478.886,59.974,484.501,59.974z"
			/>
		<path fill="#ED2024" stroke="#10122F" stroke-miterlimit="10" d="M600.296,115.931l1.904-0.073
			c10.303-0.439,17.822,6.274,22.559,20.142c0.928,3.907,1.439,7.496,1.539,10.767c0.439,10.547-2.271,19.361-8.131,26.44
			c-2.441,2.296-4.76,3.468-6.957,3.516l-1.686,0.073c-4.688,0.195-8.154-2.734-10.4-8.789l-0.293-2.271v-0.22
			c-0.098-2.002,1.074-4.955,3.516-8.862c1.416-4.102,2.076-7.568,1.979-10.4c-0.1-2.392-1.074-5.273-2.93-8.643
			c-8.936,4.64-16.162,13.575-21.68,26.807c-1.367,3.516-1.979,6.837-1.832,9.961c0.146,4.004,3.49,6.324,10.035,6.958
			c6.689,0.928,11.963,2.393,15.82,4.395c8.789,5.665,13.377,13.599,13.77,23.803c0.439,10.743-5.615,24.023-18.164,39.844
			c-12.012,13.623-24.123,20.679-36.328,21.168c-12.158,0.486-20.68-4.98-25.562-16.406c-1.27-3.516-1.953-6.859-2.051-10.035
			l-0.072-1.83c-0.391-9.863,3.32-18.481,11.133-25.855c4.734-3.562,10.301-5.467,16.699-5.713
			c4.734-0.193,8.154,2.344,10.254,7.617l0.293,2.051l0.072,2.125c0.195,4.541-2.27,7.91-7.396,10.107
			c-4.883,0.195-7.301,0.977-7.252,2.344c-1.123,2.832-1.637,5.738-1.537,8.715c0.146,3.076,1.365,4.566,3.662,4.469h0.439
			c5.467-0.195,12.402-4.762,20.801-13.697c8.789-10.107,13.061-18.114,12.816-24.023c-0.146-4.198-2.076-6.225-5.785-6.078
			c-9.521-1.465-16.455-3.467-20.801-6.006c-8.35-5.175-12.697-12.572-13.037-22.192v-0.513
			c-0.539-12.891,5.395-27.319,17.797-43.286C582.669,121.743,591.605,116.273,600.296,115.931z"/>
	</g>
</g>
<g id="white">
	<g>
		<path fill="#FFFFFF" stroke="#10122F" stroke-miterlimit="10" d="M149.023,110.457l1.245-0.073
			c6.299-0.634,10.717,2.271,13.257,8.716l0.073,1.245c0.586,5.713-4.834,22.998-16.26,51.855
			c-14.698,32.08-23.73,53.027-27.1,62.841c-2.442,7.131-4.688,15.674-6.738,25.635c-2.344,4.102-5.738,6.349-10.181,6.738
			c-7.324,0.684-12.037-2.807-14.136-10.473l-0.073-0.514c-1.318-13.77-2.589-35.303-3.809-64.6l-0.073-0.219h-0.22
			c-10.693,23.438-18.726,42.969-24.097,58.594c-2.49,9.18-4.761,13.867-6.812,14.062c-1.465,1.221-3.418,1.953-5.859,2.197
			l-1.025,0.072c-6.104,0.586-10.327-2.344-12.671-8.789l-0.439-2.051l-0.146-1.318c0.586-12.305,0.659-32.47,0.22-60.498
			c1.366-17.382,1.635-36.352,0.806-56.909c1.708-5.957,5.517-9.203,11.426-9.741c6.152-0.634,10.521,1.831,13.11,7.397l0.806,3.076
			c0.83,8.35,0.61,24.243-0.659,47.68v0.221h0.293c14.11-30.469,22.509-47.852,25.195-52.149c2.637-2.344,5.493-3.662,8.569-3.955
			c5.761-0.586,10.155,2.149,13.184,8.203l0.513,2.856c1.269,12.94,2.344,29.493,3.223,49.658v0.221h0.293
			c14.648-31.202,23.535-53.638,26.66-67.31c0.097-3.173,1.611-6.469,4.541-9.888C144.433,111.629,146.728,110.702,149.023,110.457z
			"/>
		<path fill="#FFFFFF" stroke="#10122F" stroke-miterlimit="10" d="M163.232,163.997c8.983-0.097,14.453,2.344,16.406,7.324
			l0.22,2.563v3.809c-1.271,10.889-4.175,26.124-8.716,45.704c-5.03,32.666-8.521,48.998-10.474,48.998
			c-1.611,2.002-3.882,3.004-6.812,3.004l-6.445,0.146c-5.079,0-8.544-2.637-10.4-7.91l-0.22-1.904v-1.025
			c1.71-8.008,4.834-25.366,9.375-52.076c3.417-13.084,5.761-25.242,7.031-36.474v-3.003c0-4.345,2.417-7.324,7.251-8.936
			L163.232,163.997z M164.844,131.624h1.025c9.033-0.146,14.55,2.417,16.553,7.69l0.22,1.904v2.344
			c0,9.375-1.904,14.844-5.713,16.406c-6.495,1.124-10.816,1.685-12.964,1.685c-4.59,0-7.789-2.637-9.595-7.91l-0.22-1.685v-1.685
			l0.659-6.152v-2.783c0-4.492,2.71-7.69,8.13-9.595L164.844,131.624z"/>
		<path fill="#FFFFFF" stroke="#10122F" stroke-miterlimit="10" d="M206.467,64.974h1.039c5.928,0.782,8.892,3.907,8.892,9.375
			c0,12.55-3.375,47.486-10.125,104.81c9.606-17.089,18.196-31.249,25.768-42.48c5.104-7.079,10.341-13.257,15.707-18.53
			c3.245-3.809,6.425-5.713,9.541-5.713c4.673,0,7.896,2.979,9.671,8.936v3.003c0,2.833-2.401,7.227-7.205,13.184
			c-11.38,16.016-22.998,33.179-34.853,51.489c-6.059,8.496-9.087,15.188-9.087,20.068v1.1c0,3.857,3.311,10.033,9.931,18.529
			c5.279,10.157,12.613,21.193,22.003,33.105c9.562,9.912,17.61,16.82,24.144,20.729c10.816,7.811,22.067,13.816,33.75,18.018
			c18.476,6.981,36.023,10.473,52.638,10.473c29.423,0,49.522-10.619,60.298-31.859c6.102-9.375,7.033-22.728,7.033-31.615
			l-0.025-1.957c0.498-4.065,0.68-2.215,0.68-5.291l0.5-3.875c0-5.615-0.117-6.48,5.896-8.678h1.168
			c5.02,0,9.193,3.76,12.525,11.279c0.951,3.32,1.43,6.274,1.43,8.861v4.102c0,8.156-2.488,18.115-7.465,29.883
			c-4.371,9.57-10.449,18.848-18.238,27.832c-6.402,6.592-12.42,11.084-18.043,13.477c-12.852,6.445-27.088,9.668-42.708,9.668
			h-5.192c-32.54,0-64.538-10.669-95.995-32.006c-7.487-5.227-15.945-12.551-25.378-21.973
			c-9.13-10.793-15.382-19.507-18.757-26.148c-2.207-3.855-6.405-10.497-12.592-19.922c-4.631,11.865-7.032,19.312-7.204,22.34
			l-2.077,12.084c-2.035,4.541-4.999,6.812-8.893,6.812h-0.454c-4.198,0-7.27-2.711-9.217-8.131l-0.26-1.83v-0.221
			c0-3.076,3.31-27.807,9.931-74.193c7.701-64.893,11.553-103.345,11.553-115.357C198.266,68.099,201.491,64.974,206.467,64.974z"/>
		<path fill="#FFFFFF" stroke="#10122F" stroke-miterlimit="10" d="M285.693,163.997c8.983-0.097,14.453,2.344,16.406,7.324
			l0.22,2.563v3.809c-1.271,10.889-4.175,26.124-8.716,45.704c-5.029,32.666-8.521,48.998-10.474,48.998
			c-1.611,2.002-3.882,3.004-6.812,3.004l-6.445,0.146c-5.079,0-8.544-2.637-10.4-7.91l-0.22-1.904v-1.025
			c1.71-8.008,4.834-25.366,9.375-52.076c3.417-13.084,5.761-25.242,7.031-36.474v-3.003c0-4.345,2.417-7.324,7.251-8.936
			L285.693,163.997z M287.305,131.624h1.025c9.033-0.146,14.55,2.417,16.553,7.69l0.22,1.904v2.344
			c0,9.375-1.904,14.844-5.713,16.406c-6.494,1.124-10.815,1.685-12.964,1.685c-4.59,0-7.789-2.637-9.595-7.91l-0.22-1.685v-1.685
			l0.659-6.152v-2.783c0-4.492,2.71-7.69,8.13-9.595L287.305,131.624z"/>
		<path fill="#FFFFFF" stroke="#10122F" stroke-miterlimit="10" d="M340.112,30.916h2.197c8.057,1.271,12.085,5.323,12.085,12.158
			c0,17.432-4.493,48.146-13.477,92.139c-7.52,50.733-11.279,90.967-11.279,120.704c0,5.42-3.321,9.18-9.961,11.279l-3.223,0.293
			c-8.643-1.074-12.964-5.127-12.964-12.158v-1.318c0-33.35,4.492-77.441,13.477-132.276c7.519-35.693,11.279-62.816,11.279-81.372
			C330.591,34.065,334.546,30.916,340.112,30.916z"/>
		<path fill="#FFFFFF" stroke="#10122F" stroke-miterlimit="10" d="M361.353,163.997c8.983-0.097,14.453,2.344,16.406,7.324
			l0.22,2.563v3.809c-1.271,10.889-4.175,26.124-8.716,45.704c-5.029,32.666-8.521,48.998-10.474,48.998
			c-1.611,2.002-3.882,3.004-6.812,3.004l-6.445,0.146c-5.079,0-8.544-2.637-10.4-7.91l-0.22-1.904v-1.025
			c1.71-8.008,4.834-25.366,9.375-52.076c3.417-13.084,5.761-25.242,7.031-36.474v-3.003c0-4.345,2.417-7.324,7.251-8.936
			L361.353,163.997z M362.964,131.624h1.025c9.033-0.146,14.55,2.417,16.553,7.69l0.22,1.904v2.344
			c0,9.375-1.904,14.844-5.713,16.406c-6.494,1.124-10.815,1.685-12.964,1.685c-4.59,0-7.789-2.637-9.595-7.91l-0.22-1.685v-1.685
			l0.659-6.152v-2.783c0-4.492,2.71-7.69,8.13-9.595L362.964,131.624z"/>
		<path fill="#FFFFFF" stroke="#10122F" stroke-miterlimit="10" d="M447.078,257.157c-0.723,4.963-0.105,6.914-7.283,8.721h-1.391
			c-5.812,0-9.768-3.736-11.865-11.207c-0.635-2.88-0.953-5.688-0.953-8.422v-3.516l2.344-43.359l0.221-7.91v-0.293h-0.221
			c-10.449,20.312-16.285,32.056-17.504,35.229c-4.248,8.789-7.277,19.922-9.082,33.398c-2.686,5.127-6.422,7.691-11.207,7.691
			h-1.172c-6.543-0.732-9.814-3.833-9.814-9.303l4.907-83.349c1.855-18.798,3.809-32.324,5.86-40.576
			c1.951-3.71,4.809-5.566,8.568-5.566h0.953c5.371,0,9.18,2.856,11.426,8.569c0.34,0.635,0.512,1.514,0.512,2.637v0.22
			l-3.516,24.683l-1.904,19.19v0.219h0.293c9.326-20.947,18.336-37.45,27.027-49.511c2.734-2.49,5.613-3.735,8.643-3.735
			c5.664,0,9.326,3.052,10.986,9.155l0.439,9.082c0,4.347-0.928,21.387-2.783,51.123l-2.344,40.797l-0.156,3.707
			c-0.023,1.578-0.299,3.544-0.297,5.578 M448.218,241.122l-0.156,2.707c-0.023,1.578-0.225,4.572-0.297,6.578"/>
		<path fill="#FFFFFF" stroke="#10122F" stroke-miterlimit="10" d="M488.501,64.974h1.172c6.689,0.782,10.033,3.907,10.033,9.375
			c0,12.55-3.809,47.486-11.426,104.81c10.84-17.089,20.533-31.249,29.078-42.48c5.76-7.079,11.67-13.257,17.725-18.53
			c3.662-3.809,7.25-5.713,10.766-5.713c5.273,0,8.91,2.979,10.914,8.936v3.003c0,2.833-2.711,7.227-8.131,13.184
			c-12.842,16.016-25.953,33.179-39.33,51.489c-6.838,8.496-10.254,15.188-10.254,20.068v1.1c0,3.857,3.734,10.033,11.205,18.529
			c5.957,10.157,14.234,21.193,24.83,33.105c10.791,9.912,19.873,16.82,27.246,20.729c12.205,7.811,24.902,13.816,38.086,18.018
			c20.848,6.981,40.648,10.473,59.398,10.473c33.203,0,55.885-10.619,68.043-31.859c6.885-9.375,10.326-18.506,10.326-27.393v-4.102
			c-3.076-1.807-4.613-4.248-4.613-7.324v-0.879c0-5.615,3.393-9.521,10.18-11.719h1.318c5.664,0,10.375,3.76,14.137,11.279
			c1.072,3.32,1.611,6.274,1.611,8.861v4.102c0,8.156-2.809,18.115-8.424,29.883c-4.932,9.57-11.791,18.848-20.58,27.832
			c-7.227,6.592-14.016,11.084-20.361,13.477c-14.502,6.445-30.568,9.668-48.193,9.668h-5.859
			c-36.721,0-72.828-10.669-108.326-32.006c-8.447-5.227-17.992-12.551-28.637-21.973c-10.303-10.793-17.359-19.507-21.168-26.148
			c-2.49-3.855-7.227-10.497-14.209-19.922c-5.225,11.865-7.936,19.312-8.129,22.34l-2.344,12.084
			c-2.297,4.541-5.641,6.812-10.035,6.812h-0.512c-4.736,0-8.203-2.711-10.4-8.131l-0.293-1.83v-0.221
			c0-3.076,3.734-27.807,11.205-74.193c8.691-64.893,13.037-103.345,13.037-115.357C479.248,68.099,482.886,64.974,488.501,64.974z"
			/>
		<path fill="#FFFFFF" stroke="#10122F" stroke-miterlimit="10" d="M604.296,120.931l1.904-0.073
			c10.303-0.439,17.822,6.275,22.559,20.142c0.928,3.907,1.439,7.496,1.539,10.767c0.439,10.547-2.271,19.361-8.131,26.44
			c-2.441,2.296-4.76,3.468-6.957,3.516l-1.686,0.073c-4.688,0.196-8.154-2.734-10.4-8.789l-0.293-2.271v-0.22
			c-0.098-2.001,1.074-4.955,3.516-8.862c1.416-4.102,2.076-7.568,1.979-10.4c-0.1-2.392-1.074-5.273-2.93-8.643
			c-8.936,4.64-16.162,13.575-21.68,26.807c-1.367,3.516-1.979,6.837-1.832,9.961c0.146,4.004,3.49,6.324,10.035,6.958
			c6.689,0.928,11.963,2.393,15.82,4.395c8.789,5.664,13.377,13.599,13.77,23.803c0.439,10.743-5.615,24.023-18.164,39.844
			c-12.012,13.623-24.123,20.679-36.328,21.168c-12.158,0.486-20.68-4.98-25.562-16.406c-1.27-3.516-1.953-6.859-2.051-10.035
			l-0.072-1.83c-0.391-9.863,3.32-18.481,11.133-25.855c4.734-3.562,10.301-5.467,16.699-5.713
			c4.734-0.193,8.154,2.344,10.254,7.617l0.293,2.051l0.072,2.125c0.195,4.541-2.27,7.91-7.396,10.107
			c-4.883,0.195-7.301,0.977-7.252,2.344c-1.123,2.832-1.637,5.738-1.537,8.715c0.146,3.076,1.365,4.566,3.662,4.469h0.439
			c5.467-0.195,12.402-4.762,20.801-13.697c8.789-10.107,13.061-18.114,12.816-24.023c-0.146-4.198-2.076-6.225-5.785-6.078
			c-9.521-1.465-16.455-3.467-20.801-6.006c-8.35-5.176-12.697-12.572-13.037-22.193v-0.513
			c-0.539-12.891,5.395-27.319,17.797-43.286C586.669,126.742,595.605,121.273,604.296,120.931z"/>
	</g>
</g>
<g id="Layer_8">
	<path fill="#FFFFFF" d="M426.221,247.893l-0.666,10.833l2.75,5.167l7.479,3l4.771,0.429l3.229-0.846c0,0,1.478-0.082,2.187-2.999
		c0.917-4.792,1-7.458,1-7.458L426.221,247.893z"/>
	<line fill="none" stroke="#10122F" stroke-miterlimit="10" x1="447.857" y1="248.643" x2="447.294" y2="258.424"/>
	<path fill="#ED2024" d="M422.18,243.685c0,0-0.417,8.875-0.375,7.667s1.167,4.125,1.167,4.125l1.708,1.042l0.209-2.5
		L422.18,243.685z"/>
	<path fill="#F26722" d="M418.107,238.987c0,0-0.219,11-0.469,10.75s2.906,3.5,2.906,3.5l0.219-2.5l-2.656-11.875"/>
	<path fill="#F4EA12" d="M414.107,234.456c0,0-0.031,9.094-0.469,10.906s1.969,3.219,1.969,3.219l1.062,0.562l0.188-2.406
		L414.107,234.456z"/>
	<path fill="#78C143" d="M410.107,230.893c0,0-0.031,9.219-0.5,10.812s3.031,3.406,3.031,3.406l0.188-2.219L410.107,230.893z"/>
	<path fill="#4DB5E7" d="M407.373,235.237c0,0-0.438,1.25-0.719,2.172s2.016,3.719,2.016,3.719l0.172-2.156L407.373,235.237z"/>
</g>
</svg>
